<?xml version="1.0" encoding="UTF-8" standalone="no"?>
<!-- Generator: Adobe Illustrator 17.0.2, SVG Export Plug-In . SVG Version: 6.00 Build 0)  -->
<!DOCTYPE svg  PUBLIC '-//W3C//DTD SVG 1.1//EN'  'http://www.w3.org/Graphics/SVG/1.1/DTD/svg11.dtd'>
<svg style="enable-background:new 0 0 459 398" xmlns="http://www.w3.org/2000/svg" xml:space="preserve" height="398px" width="459px" version="1.1" y="0px" x="0px" xmlns:xlink="http://www.w3.org/1999/xlink" viewBox="0 0 459 398">
<g id="BK">
		<defs>
			<rect id="SVGID_23_" y="-2175" x="-221" height="1600" width="1440"/>
		</defs>
		<clipPath id="SVGID_2_">
			<use xlink:href="#SVGID_23_"/>
		</clipPath>
</g>
<g id="Comp">
	<path d="m293 175c0 44.179-35.816 80-80 80s-80-35.821-80-80c0-44.183 35.819-80 80-80 44.18 0 80 35.82 80 80z" fill="#DD4814"/>
	<path d="m158.6 164.31c-5.901 0-10.681 4.785-10.681 10.686 0 5.898 4.78 10.679 10.681 10.679 5.898 0 10.68-4.781 10.68-10.679 0-5.9-4.78-10.69-10.68-10.69z" fill="#fff"/>
	<path d="m234.86 212.86c-5.106 2.951-6.859 9.48-3.906 14.586 2.947 5.107 9.474 6.863 14.583 3.912 5.108-2.951 6.86-9.482 3.911-14.592-2.94-5.11-9.47-6.85-14.58-3.91z" fill="#fff"/>
	<path d="m181.8 175c0-10.554 5.242-19.878 13.266-25.527l-7.809-13.082c-9.346 6.248-16.299 15.796-19.188 26.969 3.372 2.756 5.53 6.944 5.53 11.64 0 4.688-2.158 8.877-5.53 11.634 2.888 11.179 9.841 20.724 19.188 26.974l7.809-13.086c-8.03-5.63-13.27-14.95-13.27-25.51z" fill="#fff"/>
	<path d="m213 143.8c16.3 0 29.67 12.496 31.075 28.434l15.221-0.223c-0.75-11.768-5.89-22.329-13.788-30.094-4.062 1.53-8.752 1.3-12.806-1.041-4.062-2.344-6.609-6.296-7.305-10.59-3.948-1.087-8.101-1.679-12.397-1.679-7.382 0-14.366 1.731-20.563 4.799l7.421 13.299c3.99-1.87 8.44-2.91 13.14-2.91z" fill="#fff"/>
	<path d="m213 206.2c-4.695 0-9.147-1.044-13.14-2.9l-7.423 13.297c6.199 3.072 13.181 4.81 20.563 4.81 4.296 0 8.452-0.599 12.396-1.693 0.696-4.289 3.244-8.241 7.305-10.588 4.058-2.34 8.745-2.574 12.806-1.042 7.898-7.766 13.037-18.327 13.788-30.094l-15.228-0.221c-1.4 15.92-14.77 28.42-31.07 28.42z" fill="#fff"/>
	<path d="m234.86 137.13c5.109 2.945 11.639 1.201 14.586-3.906 2.953-5.11 1.204-11.636-3.906-14.587-5.109-2.952-11.636-1.202-14.589 3.907-2.95 5.12-1.19 11.64 3.91 14.59z" fill="#fff"/>
	<path d="m459 173c0 22.089-17.908 40-40 40s-40-17.911-40-40c0-22.092 17.909-40 40-40 22.09 0 40 17.91 40 40z" fill="#D53023"/>
		<path id="rect1227_3_" fill="#fff" d="m400.99 152.22c-1.535 0-2.771 1.236-2.771 2.77v9.697h8.312v-2.77c0-0.767 0.617-1.385 1.385-1.385h22.164c0.766 0 1.385 0.618 1.385 1.385v2.77h8.311v-9.697c0-1.535-1.236-2.77-2.77-2.77h-36.01zm-2.77 15.24v11.083h8.312v-11.083h-8.31zm33.25 0v11.083h8.311v-11.083h-8.31zm-33.25 13.85v9.697c0 1.534 1.236 2.77 2.771 2.77h36.018c1.534 0 2.77-1.236 2.77-2.77v-9.697h-8.311v2.77c0 0.768-0.619 1.386-1.385 1.386h-22.164c-0.768 0-1.385-0.618-1.385-1.386v-2.77h-8.32z"/>
	<path d="m212 307c0-0.55 0.45-1 1-1s1 0.45 1 1c0 0.551-0.45 1-1 1s-1-0.45-1-1zm0-4c0-0.55 0.45-1 1-1s1 0.45 1 1c0 0.551-0.45 1-1 1s-1-0.45-1-1zm0-4c0-0.55 0.45-1 1-1s1 0.45 1 1c0 0.551-0.45 1-1 1s-1-0.45-1-1zm0-4c0-0.55 0.45-1 1-1s1 0.45 1 1c0 0.551-0.45 1-1 1s-1-0.45-1-1zm0-4c0-0.55 0.45-1 1-1s1 0.45 1 1c0 0.551-0.45 1-1 1s-1-0.45-1-1zm0-4c0-0.55 0.45-1 1-1s1 0.45 1 1c0 0.551-0.45 1-1 1s-1-0.45-1-1zm0-4c0-0.55 0.45-1 1-1s1 0.45 1 1c0 0.551-0.45 1-1 1s-1-0.45-1-1zm0-4c0-0.55 0.45-1 1-1s1 0.45 1 1c0 0.551-0.45 1-1 1s-1-0.45-1-1zm0-4c0-0.55 0.45-1 1-1s1 0.45 1 1c0 0.551-0.45 1-1 1s-1-0.45-1-1zm0-4c0-0.55 0.45-1 1-1s1 0.45 1 1c0 0.551-0.45 1-1 1s-1-0.45-1-1zm0-4c0-0.55 0.45-1 1-1s1 0.45 1 1c0 0.551-0.45 1-1 1s-1-0.45-1-1z" fill="#DD4814"/>
	<path d="m121.78 266.22c-0.39-0.4-0.39-1.03 0-1.42 0.391-0.391 1.03-0.391 1.421 0 0.38 0.39 0.38 1.02 0 1.42-0.2 0.189-0.46 0.29-0.71 0.29-0.26 0-0.51-0.1-0.71-0.29zm2.83-2.83c-0.39-0.391-0.39-1.03 0-1.42 0.391-0.391 1.021-0.391 1.41 0 0.4 0.39 0.4 1.029 0 1.42-0.189 0.189-0.45 0.29-0.7 0.29-0.26 0-0.51-0.1-0.71-0.29zm2.83-2.83c-0.39-0.39-0.39-1.021 0-1.42 0.391-0.391 1.021-0.391 1.41 0 0.391 0.399 0.391 1.03 0 1.42-0.189 0.189-0.45 0.29-0.7 0.29-0.26 0-0.51-0.1-0.71-0.29zm2.83-2.83c-0.39-0.39-0.39-1.021 0-1.41 0.391-0.39 1.021-0.39 1.41 0 0.39 0.39 0.39 1.021 0 1.41-0.189 0.2-0.45 0.29-0.7 0.29-0.26 0-0.52-0.09-0.71-0.29zm2.83-2.83c-0.39-0.39-0.39-1.02 0-1.41 0.391-0.39 1.021-0.39 1.41 0 0.39 0.391 0.39 1.021 0 1.41-0.2 0.2-0.45 0.3-0.71 0.3-0.25 0-0.51-0.1-0.7-0.3zm2.82-2.83c-0.391-0.39-0.391-1.02 0-1.41 0.39-0.39 1.03-0.39 1.42 0 0.39 0.391 0.39 1.021 0 1.41-0.2 0.2-0.45 0.3-0.71 0.3-0.25 0-0.51-0.1-0.71-0.3zm2.83-2.82c-0.391-0.399-0.391-1.029 0-1.42 0.39-0.39 1.029-0.39 1.42 0 0.39 0.391 0.39 1.021 0 1.42-0.2 0.19-0.45 0.29-0.71 0.29s-0.51-0.1-0.71-0.29zm2.83-2.83c-0.391-0.391-0.391-1.03 0-1.421 0.39-0.39 1.029-0.39 1.42 0 0.39 0.391 0.39 1.03 0 1.421-0.2 0.189-0.46 0.289-0.71 0.289-0.26 0-0.51-0.1-0.71-0.29zm2.83-2.83c-0.391-0.391-0.391-1.021 0-1.41 0.39-0.4 1.02-0.4 1.409 0 0.391 0.39 0.391 1.02 0 1.41-0.189 0.189-0.449 0.29-0.699 0.29-0.26 0-0.51-0.1-0.71-0.29zm2.83-2.83c-0.391-0.391-0.391-1.021 0-1.41 0.39-0.391 1.02-0.391 1.409 0 0.391 0.39 0.391 1.02 0 1.41-0.189 0.199-0.449 0.29-0.71 0.29-0.25 0-0.51-0.09-0.7-0.29z" fill="#DD4814"/>
	<path d="m12.21 223.79c-0.391-0.39-0.391-1.02 0-1.42 0.39-0.39 1.02-0.39 1.41 0 0.39 0.4 0.39 1.03 0 1.42-0.19 0.19-0.45 0.29-0.71 0.29-0.25 0-0.511-0.1-0.7-0.29zm2.83-2.83c-0.391-0.39-0.391-1.029 0-1.409 0.39-0.391 1.02-0.391 1.41 0 0.39 0.38 0.39 1.02 0 1.409-0.19 0.2-0.45 0.29-0.71 0.29-0.25 0-0.511-0.09-0.7-0.29zm2.819-2.83c-0.38-0.391-0.38-1.021 0-1.41 0.4-0.391 1.03-0.391 1.42 0 0.391 0.39 0.391 1.02 0 1.41-0.199 0.199-0.449 0.3-0.71 0.3-0.25 0-0.509-0.1-0.71-0.3zm2.83-2.83c-0.39-0.391-0.39-1.021 0-1.41 0.391-0.391 1.03-0.391 1.42 0 0.391 0.39 0.391 1.02 0 1.41-0.199 0.199-0.449 0.3-0.71 0.3-0.25 0-0.509-0.1-0.71-0.3zm2.831-2.82c-0.39-0.4-0.39-1.03 0-1.42 0.391-0.39 1.03-0.39 1.42 0 0.38 0.39 0.38 1.02 0 1.42-0.199 0.19-0.46 0.29-0.71 0.29-0.26 0-0.51-0.1-0.71-0.29zm2.83-2.83c-0.39-0.39-0.39-1.03 0-1.42 0.391-0.39 1.021-0.39 1.42 0 0.391 0.39 0.391 1.03 0 1.42-0.2 0.19-0.46 0.29-0.71 0.29-0.26 0-0.51-0.1-0.71-0.29zm2.83-2.83c-0.39-0.39-0.39-1.02 0-1.42 0.39-0.39 1.021-0.39 1.41 0 0.39 0.4 0.39 1.03 0 1.42-0.19 0.19-0.45 0.29-0.7 0.29-0.26 0-0.52-0.1-0.71-0.29zm2.83-2.83c-0.39-0.39-0.39-1.02 0-1.42 0.39-0.38 1.02-0.38 1.41 0 0.39 0.4 0.39 1.03 0 1.42-0.19 0.19-0.45 0.29-0.71 0.29-0.25 0-0.51-0.1-0.7-0.29zm2.82-2.83c-0.391-0.39-0.391-1.02 0-1.41 0.399-0.39 1.029-0.39 1.42 0 0.39 0.391 0.39 1.021 0 1.41-0.19 0.2-0.45 0.29-0.71 0.29-0.25 0-0.511-0.09-0.71-0.29zm2.84-2.83c-0.4-0.39-0.4-1.02 0-1.409 0.39-0.391 1.02-0.391 1.41 0 0.39 0.39 0.39 1.02 0 1.409-0.2 0.2-0.45 0.301-0.71 0.301-0.25 0-0.511-0.1-0.7-0.3zm2.82-2.82c-0.391-0.4-0.391-1.03 0-1.42 0.39-0.391 1.029-0.391 1.42 0 0.39 0.39 0.39 1.02 0 1.42-0.2 0.189-0.45 0.29-0.71 0.29-0.261 0-0.511-0.1-0.71-0.29zm2.829-2.83c-0.39-0.391-0.39-1.03 0-1.42 0.391-0.391 1.021-0.391 1.421 0 0.39 0.39 0.39 1.029 0 1.42-0.2 0.189-0.461 0.29-0.711 0.29-0.259 0-0.509-0.1-0.71-0.29zm2.83-2.83c-0.39-0.391-0.39-1.03 0-1.42 0.391-0.391 1.03-0.391 1.41 0 0.391 0.39 0.391 1.029 0 1.42-0.189 0.189-0.45 0.29-0.7 0.29-0.259 0-0.519-0.1-0.71-0.29zm2.83-2.83c-0.39-0.39-0.39-1.021 0-1.42 0.391-0.38 1.021-0.38 1.41 0 0.39 0.399 0.39 1.03 0 1.42-0.189 0.2-0.45 0.29-0.7 0.29-0.259 0-0.519-0.09-0.71-0.29zm2.831-2.83c-0.39-0.39-0.39-1.02 0-1.41 0.391-0.39 1.021-0.39 1.41 0 0.39 0.391 0.39 1.021 0 1.41-0.19 0.2-0.45 0.29-0.71 0.29-0.25 0-0.51-0.09-0.7-0.29zm2.83-2.83c-0.39-0.39-0.39-1.02 0-1.41 0.38-0.39 1.021-0.39 1.41 0 0.39 0.391 0.39 1.021 0 1.41-0.19 0.2-0.45 0.3-0.71 0.3-0.25 0-0.51-0.1-0.7-0.3zm2.82-2.82c-0.391-0.399-0.391-1.029 0-1.42 0.39-0.39 1.03-0.39 1.42 0 0.39 0.391 0.39 1.021 0 1.42-0.2 0.19-0.45 0.29-0.71 0.29s-0.51-0.1-0.71-0.29zm62.54-3.54c0-0.55 0.45-1 1-1s1 0.45 1 1c0 0.551-0.45 1-1 1s-1-0.45-1-1zm-4 0c0-0.55 0.45-1 1-1s1 0.45 1 1c0 0.551-0.45 1-1 1s-1-0.45-1-1zm-4 0c0-0.55 0.45-1 1-1s1 0.45 1 1c0 0.551-0.45 1-1 1s-1-0.45-1-1zm-4 0c0-0.55 0.45-1 1-1s1 0.45 1 1c0 0.551-0.45 1-1 1s-1-0.45-1-1zm-4 0c0-0.55 0.45-1 1-1s1 0.45 1 1c0 0.551-0.45 1-1 1s-1-0.45-1-1zm-4 0c0-0.55 0.45-1 1-1s1 0.45 1 1c0 0.551-0.45 1-1 1s-1-0.45-1-1zm-4 0c0-0.55 0.45-1 1-1s1 0.45 1 1c0 0.551-0.45 1-1 1s-1-0.45-1-1zm-4 0c0-0.55 0.45-1 1-1s1 0.45 1 1c0 0.551-0.45 1-1 1s-1-0.45-1-1zm-4 0c0-0.55 0.45-1 1-1s1 0.45 1 1c0 0.551-0.45 1-1 1s-1-0.45-1-1zm-4 0c0-0.55 0.45-1 1-1s1 0.45 1 1c0 0.551-0.45 1-1 1s-1-0.45-1-1zm-4 0c0-0.55 0.45-1 1-1s1 0.45 1 1c0 0.551-0.45 1-1 1s-1-0.45-1-1zm-4 0c0-0.55 0.45-1 1-1s1 0.45 1 1c0 0.551-0.45 1-1 1s-1-0.45-1-1zm-4 0c0-0.55 0.45-1 1-1s1 0.45 1 1c0 0.551-0.45 1-1 1s-1-0.45-1-1zm-4 0c0-0.55 0.45-1 1-1s1 0.45 1 1c0 0.551-0.45 1-1 1s-1-0.45-1-1zm-4 0c0-0.55 0.45-1 1-1s1 0.45 1 1c0 0.551-0.45 1-1 1s-1-0.45-1-1zm-4 0c0-0.55 0.45-1 1-1s1 0.45 1 1c0 0.551-0.45 1-1 1s-1-0.45-1-1z" fill="#DD4814"/>
	<path d="m147.24 110.65c-0.391-0.39-0.391-1.02 0-1.41 0.39-0.39 1.02-0.39 1.409 0 0.391 0.391 0.391 1.021 0 1.41-0.189 0.2-0.449 0.29-0.699 0.29-0.26 0-0.52-0.09-0.71-0.29zm-2.83-2.83c-0.391-0.39-0.391-1.02 0-1.41 0.39-0.39 1.02-0.39 1.409 0 0.391 0.391 0.391 1.021 0 1.41-0.189 0.2-0.449 0.3-0.699 0.3-0.26 0-0.52-0.1-0.71-0.3zm-2.83-2.82c-0.391-0.399-0.391-1.029 0-1.42 0.39-0.39 1.02-0.39 1.42 0 0.39 0.391 0.39 1.021 0 1.42-0.2 0.19-0.46 0.29-0.71 0.29-0.26 0-0.51-0.1-0.71-0.29zm-2.83-2.83c-0.391-0.391-0.391-1.03 0-1.421 0.39-0.39 1.029-0.39 1.42 0 0.39 0.391 0.39 1.03 0 1.421-0.2 0.189-0.45 0.289-0.71 0.289s-0.51-0.1-0.71-0.29zm-2.83-2.829c-0.391-0.391-0.391-1.03 0-1.42 0.39-0.391 1.03-0.391 1.42 0 0.39 0.39 0.39 1.029 0 1.42-0.2 0.189-0.45 0.29-0.71 0.29-0.25 0-0.51-0.1-0.71-0.29zm-2.82-2.83c-0.39-0.391-0.39-1.021 0-1.41 0.38-0.4 1.021-0.4 1.41 0 0.39 0.39 0.39 1.02 0 1.41-0.2 0.199-0.45 0.29-0.71 0.29-0.25 0-0.51-0.091-0.7-0.29zm-2.83-2.83c-0.39-0.391-0.39-1.021 0-1.41 0.391-0.39 1.021-0.39 1.41 0 0.39 0.39 0.39 1.02 0 1.41-0.189 0.2-0.45 0.29-0.7 0.29-0.26 0-0.52-0.09-0.71-0.29zm-2.83-2.83c-0.39-0.391-0.39-1.021 0-1.41 0.391-0.39 1.021-0.39 1.41 0 0.391 0.39 0.391 1.02 0 1.41-0.189 0.2-0.45 0.3-0.7 0.3-0.26 0-0.52-0.1-0.71-0.3zm-2.83-2.82c-0.39-0.399-0.39-1.03 0-1.42 0.391-0.39 1.021-0.39 1.42 0 0.381 0.39 0.381 1.021 0 1.42-0.199 0.19-0.46 0.29-0.71 0.29-0.26 0-0.51-0.1-0.71-0.29zm-2.83-2.831c-0.39-0.39-0.39-1.029 0-1.42 0.391-0.39 1.03-0.39 1.421 0 0.39 0.391 0.39 1.03 0 1.42-0.2 0.19-0.45 0.29-0.71 0.29-0.26 0.001-0.51-0.099-0.71-0.29zm-2.83-2.83c-0.391-0.39-0.391-1.029 0-1.42 0.39-0.39 1.029-0.39 1.42 0 0.39 0.391 0.39 1.03 0 1.42-0.2 0.19-0.45 0.29-0.71 0.29s-0.51-0.099-0.71-0.29zm-2.82-2.83c-0.39-0.39-0.39-1.029 0-1.409 0.38-0.4 1.02-0.4 1.41 0 0.39 0.38 0.39 1.02 0 1.409-0.2 0.19-0.45 0.29-0.71 0.29-0.25 0-0.51-0.099-0.7-0.29zm-2.83-2.83c-0.39-0.39-0.39-1.02 0-1.409 0.39-0.391 1.02-0.391 1.41 0 0.39 0.39 0.39 1.02 0 1.409-0.19 0.2-0.45 0.29-0.71 0.29-0.25 0-0.51-0.09-0.7-0.29zm-2.83-2.829c-0.39-0.391-0.39-1.021 0-1.41 0.39-0.391 1.021-0.391 1.41 0 0.39 0.39 0.39 1.02 0 1.41-0.19 0.199-0.45 0.29-0.7 0.29-0.26 0-0.52-0.091-0.71-0.29zm-2.83-2.83c-0.39-0.391-0.39-1.021 0-1.41 0.39-0.391 1.021-0.391 1.42 0 0.38 0.39 0.38 1.02 0 1.41-0.2 0.199-0.46 0.3-0.71 0.3-0.26 0-0.52-0.101-0.71-0.3zm-2.83-2.82c-0.39-0.39-0.39-1.03 0-1.42 0.391-0.39 1.03-0.39 1.42 0 0.391 0.39 0.391 1.03 0 1.42-0.2 0.19-0.45 0.29-0.71 0.29s-0.51-0.1-0.71-0.29z" fill="#DD4814"/>
	<path d="m212 83c0-0.55 0.45-1 1-1s1 0.45 1 1c0 0.551-0.45 1-1 1s-1-0.449-1-1zm0-4c0-0.55 0.45-1 1-1s1 0.45 1 1c0 0.551-0.45 1-1 1s-1-0.449-1-1zm0-4c0-0.55 0.45-1 1-1s1 0.45 1 1c0 0.551-0.45 1-1 1s-1-0.449-1-1zm0-4c0-0.55 0.45-1 1-1s1 0.45 1 1c0 0.551-0.45 1-1 1s-1-0.449-1-1zm0-4c0-0.55 0.45-1 1-1s1 0.45 1 1c0 0.551-0.45 1-1 1s-1-0.449-1-1zm0-4c0-0.55 0.45-1 1-1s1 0.45 1 1c0 0.551-0.45 1-1 1s-1-0.449-1-1zm0-4c0-0.55 0.45-1 1-1s1 0.45 1 1c0 0.551-0.45 1-1 1s-1-0.449-1-1zm0-4c0-0.55 0.45-1 1-1s1 0.45 1 1c0 0.551-0.45 1-1 1s-1-0.449-1-1zm0-4c0-0.55 0.45-1 1-1s1 0.45 1 1c0 0.551-0.45 1-1 1s-1-0.449-1-1zm0-4c0-0.55 0.45-1 1-1s1 0.45 1 1c0 0.551-0.45 1-1 1s-1-0.449-1-1zm0-4c0-0.55 0.45-1 1-1s1 0.45 1 1c0 0.551-0.45 1-1 1s-1-0.449-1-1zm0-4c0-0.55 0.45-1 1-1s1 0.45 1 1c0 0.551-0.45 1-1 1s-1-0.449-1-1zm0-4c0-0.55 0.45-1 1-1s1 0.45 1 1c0 0.551-0.45 1-1 1s-1-0.449-1-1zm0-4c0-0.55 0.45-1 1-1s1 0.45 1 1c0 0.551-0.45 1-1 1s-1-0.449-1-1zm0-4c0-0.55 0.45-1 1-1s1 0.45 1 1c0 0.551-0.45 1-1 1s-1-0.449-1-1zm0-4c0-0.55 0.45-1 1-1s1 0.45 1 1c0 0.551-0.45 1-1 1s-1-0.449-1-1z" fill="#DD4814"/>
	<path d="m277.35 110.65c-0.399-0.39-0.399-1.02 0-1.41 0.391-0.39 1.021-0.39 1.41 0 0.39 0.391 0.39 1.021 0 1.41-0.19 0.2-0.45 0.29-0.71 0.29-0.25 0-0.51-0.09-0.7-0.29zm2.82-2.83c-0.391-0.39-0.391-1.02 0-1.41 0.39-0.39 1.03-0.39 1.42 0 0.39 0.391 0.39 1.021 0 1.41-0.2 0.2-0.45 0.3-0.71 0.3-0.25 0-0.51-0.1-0.71-0.3zm2.83-2.82c-0.391-0.399-0.391-1.029 0-1.42 0.39-0.39 1.029-0.39 1.42 0 0.39 0.391 0.39 1.021 0 1.42-0.2 0.19-0.45 0.29-0.71 0.29s-0.51-0.1-0.71-0.29zm2.83-2.83c-0.391-0.391-0.391-1.03 0-1.421 0.39-0.39 1.029-0.39 1.41 0 0.399 0.391 0.399 1.03 0 1.421-0.19 0.189-0.45 0.289-0.7 0.289-0.26 0-0.52-0.1-0.71-0.29zm2.83-2.829c-0.391-0.391-0.391-1.03 0-1.42 0.39-0.391 1.029-0.391 1.409 0 0.391 0.39 0.391 1.029 0 1.42-0.189 0.189-0.449 0.29-0.699 0.29-0.26 0-0.51-0.1-0.71-0.29zm2.83-2.83c-0.391-0.391-0.391-1.021 0-1.41 0.39-0.4 1.02-0.4 1.409 0 0.391 0.39 0.391 1.02 0 1.41-0.189 0.199-0.449 0.29-0.71 0.29-0.25 0-0.51-0.091-0.7-0.29zm2.82-2.83c-0.38-0.391-0.38-1.021 0-1.41 0.4-0.39 1.03-0.39 1.42 0 0.391 0.39 0.391 1.02 0 1.41-0.2 0.2-0.45 0.29-0.71 0.29-0.25 0-0.51-0.09-0.71-0.29zm2.83-2.83c-0.38-0.391-0.38-1.021 0-1.41 0.4-0.39 1.03-0.39 1.42 0 0.391 0.39 0.391 1.02 0 1.41-0.2 0.2-0.45 0.3-0.71 0.3-0.25 0-0.51-0.1-0.71-0.3zm2.83-2.82c-0.39-0.399-0.39-1.03 0-1.42s1.03-0.39 1.42 0 0.39 1.021 0 1.42c-0.2 0.19-0.45 0.29-0.71 0.29s-0.51-0.1-0.71-0.29zm2.83-2.831c-0.39-0.39-0.39-1.029 0-1.42 0.39-0.39 1.03-0.39 1.41 0 0.399 0.391 0.399 1.03 0 1.42-0.19 0.19-0.45 0.29-0.7 0.29-0.26 0.001-0.51-0.099-0.71-0.29zm2.83-2.83c-0.39-0.39-0.39-1.029 0-1.42 0.39-0.39 1.02-0.39 1.41 0 0.39 0.391 0.39 1.03 0 1.42-0.19 0.19-0.45 0.29-0.7 0.29-0.26 0-0.51-0.099-0.71-0.29zm2.83-2.83c-0.391-0.39-0.391-1.029 0-1.409 0.39-0.4 1.02-0.4 1.41 0 0.39 0.38 0.39 1.02 0 1.409-0.19 0.19-0.45 0.29-0.7 0.29-0.26 0-0.52-0.099-0.71-0.29z" fill="#DD4814"/>
	<path d="m364 175c0-0.55 0.439-1 1-1 0.55 0 1 0.45 1 1 0 0.551-0.45 1-1 1-0.56 0-1-0.45-1-1zm-4 0c0-0.55 0.45-1 1-1s1 0.45 1 1c0 0.551-0.45 1-1 1s-1-0.45-1-1zm-4 0c0-0.55 0.45-1 1-1s1 0.45 1 1c0 0.551-0.45 1-1 1s-1-0.45-1-1zm-4 0c0-0.55 0.439-1 1-1 0.55 0 1 0.45 1 1 0 0.551-0.45 1-1 1-0.56 0-1-0.45-1-1zm-4 0c0-0.55 0.45-1 1-1s1 0.45 1 1c0 0.551-0.45 1-1 1s-1-0.45-1-1zm-4 0c0-0.55 0.45-1 1-1s1 0.45 1 1c0 0.551-0.45 1-1 1s-1-0.45-1-1zm-4 0c0-0.55 0.45-1 1-1s1 0.45 1 1c0 0.551-0.45 1-1 1s-1-0.45-1-1zm-4 0c0-0.55 0.45-1 1-1s1 0.45 1 1c0 0.551-0.45 1-1 1s-1-0.45-1-1zm-4 0c0-0.55 0.45-1 1-1s1 0.45 1 1c0 0.551-0.45 1-1 1s-1-0.45-1-1zm-4 0c0-0.55 0.45-1 1-1s1 0.45 1 1c0 0.551-0.45 1-1 1s-1-0.45-1-1zm-4 0c0-0.55 0.45-1 1-1s1 0.45 1 1c0 0.551-0.45 1-1 1s-1-0.45-1-1zm-4 0c0-0.55 0.45-1 1-1s1 0.45 1 1c0 0.551-0.45 1-1 1s-1-0.45-1-1zm-4 0c0-0.55 0.45-1 1-1s1 0.45 1 1c0 0.551-0.45 1-1 1s-1-0.45-1-1zm-4 0c0-0.55 0.45-1 1-1s1 0.45 1 1c0 0.551-0.45 1-1 1s-1-0.45-1-1zm-4 0c0-0.55 0.45-1 1-1s1 0.45 1 1c0 0.551-0.45 1-1 1s-1-0.45-1-1zm-4 0c0-0.55 0.45-1 1-1s1 0.45 1 1c0 0.551-0.45 1-1 1s-1-0.45-1-1z" fill="#DD4814"/>
	<path d="m319.48 342.48c0-0.55 0.45-1 1-1s1 0.45 1 1-0.45 1-1 1-1-0.45-1-1zm0-4c0-0.55 0.45-1 1-1s1 0.45 1 1-0.45 1-1 1-1-0.45-1-1zm0-4c0-0.55 0.45-1 1-1s1 0.45 1 1-0.45 1-1 1-1-0.45-1-1zm0-4c0-0.55 0.45-1 1-1s1 0.45 1 1-0.45 1-1 1-1-0.45-1-1zm0-4c0-0.55 0.45-1 1-1s1 0.45 1 1-0.45 1-1 1-1-0.45-1-1zm0-4c0-0.55 0.45-1 1-1s1 0.45 1 1-0.45 1-1 1-1-0.45-1-1zm0-4c0-0.55 0.45-1 1-1s1 0.45 1 1-0.45 1-1 1-1-0.45-1-1zm0-4c0-0.55 0.45-1 1-1s1 0.45 1 1-0.45 1-1 1-1-0.45-1-1zm0-4c0-0.55 0.45-1 1-1s1 0.45 1 1-0.45 1-1 1-1-0.45-1-1zm0-4c0-0.55 0.45-1 1-1s1 0.45 1 1-0.45 1-1 1-1-0.45-1-1zm0-4c0-0.55 0.45-1 1-1s1 0.45 1 1-0.45 1-1 1-1-0.45-1-1zm0-4c0-0.55 0.45-1 1-1s1 0.45 1 1-0.45 1-1 1-1-0.45-1-1zm0-4c0-0.55 0.45-1 1-1s1 0.45 1 1-0.45 1-1 1-1-0.45-1-1zm0-4c0-0.55 0.45-1 1-1s1 0.45 1 1-0.45 1-1 1-1-0.45-1-1zm0-4c0-0.55 0.45-1 1-1s1 0.45 1 1-0.45 1-1 1-1-0.45-1-1zm0-4c0-0.55 0.45-1 1-1s1 0.45 1 1-0.45 1-1 1-1-0.45-1-1zm-2.54-2.12c-0.39-0.39-0.39-1.03 0-1.42 0.391-0.39 1.03-0.39 1.42 0 0.391 0.39 0.391 1.03 0 1.42-0.199 0.19-0.449 0.29-0.71 0.29-0.25 0-0.51-0.1-0.71-0.29zm-2.83-2.83c-0.38-0.39-0.38-1.02 0-1.42 0.4-0.39 1.03-0.39 1.42 0 0.391 0.4 0.391 1.03 0 1.42-0.189 0.19-0.449 0.29-0.71 0.29-0.25 0-0.51-0.1-0.71-0.29zm-2.82-2.83c-0.391-0.39-0.391-1.02 0-1.42 0.39-0.38 1.02-0.38 1.41 0 0.39 0.4 0.39 1.03 0 1.42-0.19 0.2-0.45 0.29-0.71 0.29-0.25 0-0.51-0.09-0.7-0.29zm-2.83-2.83c-0.391-0.39-0.391-1.02 0-1.41 0.39-0.39 1.02-0.39 1.41 0 0.39 0.391 0.39 1.021 0 1.41-0.19 0.2-0.45 0.301-0.7 0.301-0.26 0-0.52-0.1-0.71-0.3zm-2.83-2.83c-0.39-0.39-0.39-1.02 0-1.409 0.39-0.391 1.03-0.391 1.42 0 0.39 0.39 0.39 1.02 0 1.409-0.2 0.2-0.46 0.301-0.71 0.301-0.26 0-0.52-0.1-0.71-0.3zm-2.83-2.82c-0.39-0.391-0.39-1.03 0-1.42 0.39-0.391 1.03-0.391 1.42 0 0.39 0.39 0.39 1.029 0 1.42-0.2 0.189-0.46 0.29-0.71 0.29-0.26 0-0.51-0.1-0.71-0.29zm-2.83-2.83c-0.39-0.391-0.39-1.03 0-1.42 0.39-0.391 1.03-0.391 1.42 0 0.39 0.39 0.39 1.029 0 1.42-0.2 0.189-0.45 0.29-0.71 0.29s-0.51-0.1-0.71-0.29zm-2.83-2.83c-0.39-0.39-0.39-1.021 0-1.42 0.39-0.391 1.03-0.391 1.42 0 0.391 0.399 0.391 1.03 0 1.42-0.2 0.189-0.45 0.29-0.71 0.29-0.25 0-0.51-0.1-0.71-0.29zm-2.82-2.83c-0.39-0.39-0.39-1.021 0-1.42 0.391-0.38 1.021-0.38 1.41 0 0.391 0.399 0.391 1.03 0 1.42-0.189 0.2-0.45 0.29-0.71 0.29-0.25 0-0.51-0.09-0.7-0.29zm-2.83-2.83c-0.391-0.39-0.391-1.02 0-1.41 0.39-0.39 1.02-0.39 1.409 0 0.391 0.391 0.391 1.021 0 1.41-0.189 0.2-0.449 0.29-0.71 0.29-0.25 0-0.51-0.09-0.7-0.29zm-2.83-2.83c-0.391-0.39-0.391-1.02 0-1.41 0.39-0.39 1.02-0.39 1.409 0 0.391 0.391 0.391 1.021 0 1.41-0.189 0.2-0.449 0.3-0.699 0.3-0.26 0-0.51-0.1-0.71-0.3zm-2.83-2.83c-0.391-0.39-0.391-1.02 0-1.41 0.39-0.39 1.029-0.39 1.42 0 0.39 0.391 0.39 1.021 0 1.41-0.2 0.2-0.45 0.3-0.71 0.3s-0.51-0.1-0.71-0.3zm-2.83-2.82c-0.391-0.391-0.391-1.03 0-1.421 0.39-0.39 1.029-0.39 1.42 0 0.39 0.391 0.39 1.03 0 1.421-0.2 0.189-0.46 0.289-0.71 0.289-0.26 0-0.51-0.1-0.71-0.29zm-2.82-2.83c-0.4-0.391-0.4-1.03 0-1.42 0.38-0.391 1.021-0.391 1.41 0 0.39 0.39 0.39 1.029 0 1.42-0.2 0.189-0.45 0.29-0.71 0.29-0.25 0-0.51-0.1-0.7-0.29zm-2.84-2.83c-0.38-0.391-0.38-1.021 0-1.41 0.4-0.391 1.03-0.391 1.42 0 0.39 0.39 0.39 1.02 0 1.41-0.19 0.189-0.45 0.29-0.71 0.29-0.25 0-0.51-0.1-0.71-0.29z" fill="#DD4814"/>
		<path d="m213 8c1.654 0 3 1.346 3 3s-1.346 3-3 3-3-1.346-3-3 1.35-3 3-3m0-2c-2.762 0-5 2.239-5 5s2.238 5 5 5 5-2.239 5-5-2.24-5-5-5z" fill="#DD4814"/>
		<path d="m98 57c1.654 0 3 1.346 3 3s-1.346 3-3 3-3-1.346-3-3 1.346-3 3-3m0-2c-2.762 0-5 2.239-5 5s2.238 5 5 5 5-2.239 5-5-2.24-5-5-5z" fill="#DD4814"/>
		<path d="m5 228c1.654 0 3 1.346 3 3s-1.346 3-3 3-3-1.346-3-3 1.346-3 3-3m0-2c-2.762 0-5 2.239-5 5s2.238 5 5 5 5-2.239 5-5-2.238-5-5-5z" fill="#DD4814"/>
		<path d="m320.5 351c1.654 0 3 1.346 3 3s-1.346 3-3 3-3-1.346-3-3 1.35-3 3-3m0-2c-2.762 0-5 2.239-5 5s2.238 5 5 5 5-2.239 5-5-2.24-5-5-5z" fill="#DD4814"/>
	<path d="m85.018 261.66c-22.055 0-40 17.944-40 39.999s17.945 40 40 40c22.056 0 40-17.945 40-40s-17.95-40-40.002-40zm18.742 51.23h-37.489c-6.212 0-11.249-5.036-11.249-11.249 0-5.98 4.664-10.866 10.551-11.227-2.632-5.278-0.732-11.762 4.447-14.752 5.177-2.989 11.741-1.393 14.997 3.526 3.258-4.918 9.821-6.514 14.999-3.525 5.177 2.989 7.077 9.472 4.445 14.752 5.889 0.361 10.552 5.247 10.552 11.227 0 6.21-5.03 11.25-11.25 11.25zm-25.743-4.03l4.209-11.782c-2.476-1.079-4.209-3.545-4.209-6.418 0-3.866 3.134-7 7-7s7 3.134 7 7c0 2.873-1.732 5.338-4.208 6.418l4.209 11.783h-14.001z" fill="#AEA79F"/>
	<path d="m346.21 0.471c-22.056 0-40 17.944-40 39.999s17.944 40.001 40 40.001 40-17.945 40-40.001-17.94-39.999-40-39.999zm18.75 51.225h-37.493c-6.213 0-11.25-5.036-11.25-11.249 0-5.98 4.664-10.866 10.552-11.227-2.632-5.278-0.732-11.762 4.446-14.752 5.178-2.989 11.742-1.393 14.998 3.526 3.257-4.918 9.82-6.514 14.999-3.525 5.177 2.989 7.077 9.472 4.445 14.752 5.889 0.361 10.552 5.247 10.552 11.227 0 6.212-5.04 11.248-11.25 11.248zm-31.25-16.003c0 1.381-1.119 2.5-2.5 2.5s-2.5-1.119-2.5-2.5 1.119-2.5 2.5-2.5c1.38 0 2.5 1.119 2.5 2.5zm7.5 0c0 1.381-1.119 2.5-2.5 2.5s-2.5-1.119-2.5-2.5 1.119-2.5 2.5-2.5 2.5 1.119 2.5 2.5zm7.5 0c0 1.381-1.119 2.5-2.5 2.5s-2.5-1.119-2.5-2.5 1.119-2.5 2.5-2.5 2.5 1.119 2.5 2.5zm7.5 0c0 1.381-1.119 2.5-2.5 2.5-1.38 0-2.5-1.119-2.5-2.5s1.12-2.5 2.5-2.5c1.38 0 2.5 1.119 2.5 2.5zm7.5 0c0 1.381-1.119 2.5-2.5 2.5-1.38 0-2.5-1.119-2.5-2.5s1.12-2.5 2.5-2.5c1.38 0 2.5 1.119 2.5 2.5zm-30 7.5c0 1.38-1.119 2.5-2.5 2.5s-2.5-1.12-2.5-2.5c0-1.381 1.119-2.5 2.5-2.5 1.38 0 2.5 1.119 2.5 2.5zm5 2.5c-1.381 0-2.5-1.12-2.5-2.5 0-1.381 1.119-2.5 2.5-2.5h14.999c1.381 0 2.5 1.119 2.5 2.5 0 1.38-1.119 2.5-2.5 2.5h-15zm25-2.5c0 1.38-1.119 2.5-2.5 2.5-1.38 0-2.5-1.12-2.5-2.5 0-1.381 1.12-2.5 2.5-2.5s2.5 1.119 2.5 2.5z" fill="#AEA79F"/>
	<path d="m213 317.53c-22.056 0-40 17.943-40 39.999 0 22.055 17.944 40 40 40s40-17.945 40-40c0-22.06-17.94-40-40-40zm18.75 51.23h-16.505v-24.725l6.758-4.5h-18v29.225h-9.747c-6.213 0-11.249-5.036-11.249-11.249 0-5.98 4.664-10.866 10.552-11.227-2.632-5.278-0.732-11.762 4.447-14.752 5.177-2.989 11.741-1.393 14.997 3.526 3.258-4.918 9.821-6.514 14.999-3.525 5.177 2.989 7.077 9.472 4.445 14.752 5.889 0.361 10.552 5.247 10.552 11.227 0.01 6.2-5.03 11.24-11.24 11.24z" fill="#AEA79F"/>
</g>
<g id="Grid" display="none">
</g>
</svg>
